<svg xmlns="http://www.w3.org/2000/svg" viewBox="0 0 18 24"><defs><style>.cls-1{fill:gray;}</style></defs><title>air_humidity</title><g id="Layer_2" data-name="Layer 2"><g id="Layer_2-2" data-name="Layer 2"><path class="cls-1" d="M9,24a9,9,0,0,1-9-9c0-3.55,2.35-6.54,4.84-9.71A47.66,47.66,0,0,0,8.35.37.76.76,0,0,1,9,0H9a.76.76,0,0,1,.65.37,45.28,45.28,0,0,0,3.52,4.92C15.65,8.46,18,11.46,18,15A9,9,0,0,1,9,24ZM9,2.17c-.93,1.42-2,2.75-3,4C3.69,9.18,1.5,12,1.5,15a7.5,7.5,0,0,0,15,0c0-3-2.19-5.82-4.52-8.79C11,4.92,9.93,3.59,9,2.17Z"/><path class="cls-1" d="M6.75,13.5A2.25,2.25,0,1,1,9,11.25,2.25,2.25,0,0,1,6.75,13.5Zm0-3a.75.75,0,1,0,.75.75A.76.76,0,0,0,6.75,10.5Z"/><path class="cls-1" d="M11.25,21a2.25,2.25,0,1,1,2.25-2.25A2.25,2.25,0,0,1,11.25,21Zm0-3a.75.75,0,1,0,.75.75A.76.76,0,0,0,11.25,18Z"/><path class="cls-1" d="M5.25,19.5a.74.74,0,0,1-.53-.22.75.75,0,0,1,0-1.06l7.5-7.5a.75.75,0,0,1,1.06,1.06l-7.5,7.5A.74.74,0,0,1,5.25,19.5Z"/></g></g></svg>