<svg xmlns="http://www.w3.org/2000/svg" xmlns:xlink="http://www.w3.org/1999/xlink" viewBox="0 0 375 249.37"><defs><style>.cls-1,.cls-3{fill:none;}.cls-2{fill:#e6e6e6;opacity:0.5;}.cls-3{stroke:#fff;stroke-miterlimit:10;stroke-width:4px;}.cls-4{fill:url(#linear-gradient);}.cls-5{clip-path:url(#clip-path);}.cls-6{fill:url(#linear-gradient-2);}.cls-7{fill:url(#linear-gradient-3);}</style><linearGradient id="linear-gradient" x1="156.34" y1="-48.79" x2="225.7" y2="337.33" gradientUnits="userSpaceOnUse"><stop offset="0" stop-color="#f7ffff"/><stop offset="0.01" stop-color="#f7ffff" stop-opacity="0.96"/><stop offset="0.05" stop-color="#f7ffff" stop-opacity="0.78"/><stop offset="0.09" stop-color="#f7ffff" stop-opacity="0.61"/><stop offset="0.14" stop-color="#f7ffff" stop-opacity="0.47"/><stop offset="0.2" stop-color="#f7ffff" stop-opacity="0.34"/><stop offset="0.25" stop-color="#f7ffff" stop-opacity="0.23"/><stop offset="0.32" stop-color="#f7ffff" stop-opacity="0.15"/><stop offset="0.4" stop-color="#f7ffff" stop-opacity="0.08"/><stop offset="0.49" stop-color="#f7ffff" stop-opacity="0.03"/><stop offset="0.63" stop-color="#f7ffff" stop-opacity="0.01"/><stop offset="1" stop-color="#f7ffff" stop-opacity="0"/></linearGradient><clipPath id="clip-path"><rect class="cls-1" x="2.5" y="3.18" width="370" height="243"/></clipPath><linearGradient id="linear-gradient-2" x1="176.04" y1="137.29" x2="206.26" y2="305.54" xlink:href="#linear-gradient"/><linearGradient id="linear-gradient-3" x1="157.11" y1="76.71" x2="199.82" y2="314.48" xlink:href="#linear-gradient"/></defs><title>background_1</title><g id="Layer_2" data-name="Layer 2"><g id="Layer_2-2" data-name="Layer 2"><path class="cls-2" d="M369.48,2l-364,.39C3.58,2.39,2,4.48,2,7.06V242.7c0,2.58,1.58,4.67,3.52,4.67h364c1.94,0,3.52-2.09,3.52-4.67V6.67C373,4.09,371.42,2,369.48,2Z"/><path class="cls-3" d="M369.48,2l-364,.39C3.58,2.39,2,4.48,2,7.06V242.7c0,2.58,1.58,4.67,3.52,4.67h364c1.94,0,3.52-2.09,3.52-4.67V6.67C373,4.09,371.42,2,369.48,2Z"/><rect class="cls-4" x="2.5" y="3.18" width="370" height="243"/><g class="cls-5"><path class="cls-6" d="M352.69,153.44c-5.79-1.5-10.93-4.79-16.47-7-9.68-3.93-18.64-.12-28.52-1-7.94-.7-14.78-6.4-22.72-7.12-5.09-.46-10.11,1.19-15,2.81-7.49,2.51-16.76,6.5-24.59,3.67-7.44-2.7-13.43-7.1-21.8-5.43-14.31,2.87-11.44,11.45-31.48,12.88s-11.44,11.45-32.9,17.18-10,10-22.9,14.31-12.88,8.58-18.6,14.31-12.88-4.3-34.35-2.86-25.76,14.31-25.76,14.31l-10-4.3c-17.17-2.86-22.89,10-32.91,15.75C11.65,222.67,7,223.85,2,224.65v22.72H373V154.84C366.21,154.42,359.27,155.15,352.69,153.44Z"/><path class="cls-7" d="M351.38,247.37c8.26-23.24,15.24-44.07,15.24-44.07s-27.19.35-37.21-5.37-15.74-18.61-32.91-15.75l-10,4.3c.85-.37-5.76-7.42-6.14-7.72-5.71-4.51-12.07-9-18.79-11.81l-12.71-5.3c-4.31-1.79-8.66-3.6-13.26-4.38-6.38-1.09-13.41-.28-18.84-3.81-1.91-1.23-3.5-3-5.53-4-3.23-1.62-7-1.26-10.66-1.36-13.17-.37-25.54-7.39-38.72-7.36-4.08,0-8.15.7-12.21.34-9-.79-16.76-6.55-25.55-8.47-8.64-1.89-17.82,0-26.38-2.2-5.79-1.5-10.93-4.79-16.47-7-9.68-3.93-18.64-.12-28.52-1-7.94-.7-14.78-6.4-22.72-7.12-5.09-.46-10.11,1.19-15,2.81-4.29,1.44-9.16,3.35-14,4.2V247.37Z"/></g></g></g></svg>