<svg xmlns="http://www.w3.org/2000/svg" viewBox="0 0 22.85 44.83"><defs><style>.cls-1{fill:#ccc;}.cls-2{opacity:0.1;isolation:isolate;}.cls-3{fill:gray;}.cls-4{fill:#666;stroke:#666;stroke-miterlimit:10;stroke-width:0.5px;}</style></defs><title>lamp_off</title><g id="Layer_2" data-name="Layer 2"><g id="Layer_2-2" data-name="Layer 2"><path class="cls-1" d="M21.94,27.13A10.52,10.52,0,1,1,3,20.78,16.44,16.44,0,0,0,6.38,12.1c0-.4,0-.8,0-1.21V8.4h10v2.34c0,.46,0,.91,0,1.36a16.19,16.19,0,0,0,3.28,8.61A10.46,10.46,0,0,1,21.94,27.13Z"/><path class="cls-2" d="M15.83,12.1H5.75c0-.4,0-.8,0-1.21V8.4h10v2.34C15.78,11.2,15.8,11.65,15.83,12.1Z"/><path class="cls-2" d="M21.3,27.13a10.51,10.51,0,0,1-6.73,9.81A10.52,10.52,0,0,0,17.83,21.3a16.24,16.24,0,0,1-3.34-10V8.4h1.29v2.34a16.34,16.34,0,0,0,3.33,10A10.4,10.4,0,0,1,21.3,27.13Z"/><path class="cls-3" d="M16.66,10.82H6.16a.77.77,0,0,1-.75-1l.26-1,1.55-6,.36-1.39A.76.76,0,0,1,8.32.91h6.17a.76.76,0,0,1,.74.57l.36,1.39,1.55,6,.26,1A.76.76,0,0,1,16.66,10.82Z"/><path class="cls-3" d="M17.23,7.57H5.58a.84.84,0,0,1-.84-.84V5a.84.84,0,0,1,.84-.83H17.23a.84.84,0,0,1,.84.83V6.73A.84.84,0,0,1,17.23,7.57Z"/><path class="cls-4" d="M1.25,24.36a.78.78,0,0,0,.22,0A.67.67,0,0,0,2.09,24a9.89,9.89,0,0,1,1.47-2.78,17,17,0,0,0,3.52-9.69H8.31v9.34a.66.66,0,0,0,1.32,0V18.77a1.16,1.16,0,0,1,1.33.07.66.66,0,0,0,.86.06,1.34,1.34,0,0,1,1.37-.21v2.13a.66.66,0,1,0,1.31,0V18.38h0v-6.9h1.27a17,17,0,0,0,3.46,9.63,9.76,9.76,0,0,1,2.05,6,10,10,0,0,1-.39,2.78.64.64,0,0,0,.44.81.58.58,0,0,0,.19,0,.67.67,0,0,0,.63-.47,11.53,11.53,0,0,0,.45-3.15,11,11,0,0,0-2.33-6.82,15.68,15.68,0,0,1-3.18-8.9A1.45,1.45,0,0,0,18,9.7l-.4-1.53a1.49,1.49,0,0,0,1.09-1.44V5a1.5,1.5,0,0,0-1.5-1.49h-.8l-.56-2.18A1.42,1.42,0,0,0,14.49.25H8.32A1.42,1.42,0,0,0,7,1.32L6.38,3.5h-.8A1.49,1.49,0,0,0,4.09,5V6.73A1.5,1.5,0,0,0,5.17,8.17L4.78,9.7a1.42,1.42,0,0,0,1,1.72,15.63,15.63,0,0,1-3.24,9A11.12,11.12,0,0,0,.84,23.53.66.66,0,0,0,1.25,24.36Zm4.91-14.2a.1.1,0,0,1-.09,0,.1.1,0,0,1,0-.1l.46-1.79H8.34a.47.47,0,0,0,0,.17v1.76Zm7,0H9.63V8.4a.47.47,0,0,0,0-.17h3.61a.88.88,0,0,0,0,.17v1.76Zm0,7.13a2.68,2.68,0,0,0-1.73.29,2.42,2.42,0,0,0-1.83-.2v-5.9h3.56Zm1.29-9.06H16.3L16.76,10a.08.08,0,0,1,0,.1.09.09,0,0,1-.08,0H14.5V8.4A.88.88,0,0,0,14.48,8.23ZM5.4,5a.18.18,0,0,1,.18-.18h6.06a.66.66,0,1,0,0-1.31H7.74l.48-1.85a.11.11,0,0,1,.1-.09h6.17a.13.13,0,0,1,.11.09l.48,1.85h-.9a.66.66,0,1,0,0,1.31h3.05a.18.18,0,0,1,.18.18V6.73a.18.18,0,0,1-.18.18H5.58a.18.18,0,0,1-.18-.18V5Z"/><path class="cls-4" d="M11.26,38.3h.16a11.2,11.2,0,0,0,9.64-5.52.65.65,0,0,0-1.13-.66A9.92,9.92,0,0,1,11.42,37h-.14a9.94,9.94,0,0,1-9.72-9.76c0-.3,0-.62,0-.94a.66.66,0,1,0-1.31-.11c0,.36,0,.72,0,1.07a11.22,11.22,0,0,0,11,11Z"/><path class="cls-4" d="M9.15,33.11A6.13,6.13,0,0,1,5,28.5a.65.65,0,1,0-1.29.22,7.43,7.43,0,0,0,5,5.65.57.57,0,0,0,.18,0,.66.66,0,0,0,.18-1.29Z"/></g></g></svg>