<svg xmlns="http://www.w3.org/2000/svg" viewBox="0 0 22.35 44.83"><defs><style>.cls-1{fill:#fec007;}.cls-2{fill:#fe9700;}.cls-3{fill:#76c2e0;}.cls-4{fill:#2796af;}.cls-5{fill:#caedff;}</style></defs><title>lamp_on</title><g id="Layer_2" data-name="Layer 2"><g id="Layer_2-2" data-name="Layer 2"><path class="cls-1" d="M21.69,26.88a10.52,10.52,0,1,1-18.9-6.35,16.44,16.44,0,0,0,3.34-8.68c0-.4,0-.8,0-1.21V8.15h10v2.34c0,.46,0,.91,0,1.36a16.19,16.19,0,0,0,3.28,8.61A10.46,10.46,0,0,1,21.69,26.88Z"/><path class="cls-2" d="M15.58,11.85H5.5c0-.4,0-.8,0-1.21V8.15h10v2.34C15.53,11,15.55,11.4,15.58,11.85Z"/><path class="cls-2" d="M21.05,26.88a10.51,10.51,0,0,1-6.73,9.81,10.52,10.52,0,0,0,3.26-15.64,16.24,16.24,0,0,1-3.34-10V8.15h1.29v2.34a16.34,16.34,0,0,0,3.33,10A10.4,10.4,0,0,1,21.05,26.88Z"/><path class="cls-3" d="M16.41,10.57H5.91a.77.77,0,0,1-.75-1l.26-1L7,2.62l.36-1.39A.76.76,0,0,1,8.07.66h6.17a.76.76,0,0,1,.74.57l.36,1.39,1.55,6,.26,1A.76.76,0,0,1,16.41,10.57Z"/><polygon class="cls-4" points="16.89 8.6 5.42 8.6 6.97 2.62 15.34 2.62 16.89 8.6"/><path class="cls-5" d="M17,7.32H5.33a.84.84,0,0,1-.84-.84V4.74a.84.84,0,0,1,.84-.83H17a.84.84,0,0,1,.84.83V6.48A.84.84,0,0,1,17,7.32Z"/><path d="M1,24.11a.78.78,0,0,0,.22,0,.67.67,0,0,0,.62-.45,9.89,9.89,0,0,1,1.47-2.78,17,17,0,0,0,3.52-9.69H8.06v9.34a.66.66,0,0,0,1.32,0V18.52a1.16,1.16,0,0,1,1.33.07.66.66,0,0,0,.86.06,1.34,1.34,0,0,1,1.37-.21v2.13a.66.66,0,1,0,1.31,0V18.13h0v-6.9h1.27A17,17,0,0,0,19,20.86a9.76,9.76,0,0,1,2.05,6,10,10,0,0,1-.39,2.78.64.64,0,0,0,.44.81.58.58,0,0,0,.19,0A.67.67,0,0,0,21.9,30a11.53,11.53,0,0,0,.45-3.15A11,11,0,0,0,20,20.06a15.68,15.68,0,0,1-3.18-8.9,1.45,1.45,0,0,0,.95-1.71l-.4-1.53a1.49,1.49,0,0,0,1.09-1.44V4.74A1.5,1.5,0,0,0,17,3.25h-.8l-.56-2.18A1.42,1.42,0,0,0,14.24,0H8.07A1.42,1.42,0,0,0,6.7,1.07L6.13,3.25h-.8A1.49,1.49,0,0,0,3.84,4.74V6.48A1.5,1.5,0,0,0,4.92,7.92L4.53,9.45a1.42,1.42,0,0,0,1,1.72,15.63,15.63,0,0,1-3.24,9A11.12,11.12,0,0,0,.59,23.28.66.66,0,0,0,1,24.11ZM5.91,9.91a.1.1,0,0,1-.09,0,.1.1,0,0,1,0-.1L6.26,8H8.09a.47.47,0,0,0,0,.17V9.91Zm7,0H9.38V8.15a.47.47,0,0,0,0-.17H13a.88.88,0,0,0,0,.17V9.91Zm0,7.13a2.68,2.68,0,0,0-1.73.29,2.42,2.42,0,0,0-1.83-.2v-5.9h3.56ZM14.23,8h1.82l.46,1.79a.08.08,0,0,1,0,.1.09.09,0,0,1-.08,0H14.25V8.15A.88.88,0,0,0,14.23,8ZM5.15,4.74a.18.18,0,0,1,.18-.18h6.06a.66.66,0,1,0,0-1.31H7.49L8,1.4a.11.11,0,0,1,.1-.09h6.17a.13.13,0,0,1,.11.09l.48,1.85h-.9a.66.66,0,1,0,0,1.31H17a.18.18,0,0,1,.18.18V6.48a.18.18,0,0,1-.18.18H5.33a.18.18,0,0,1-.18-.18V4.74Z"/><path d="M11,38.05h.16a11.2,11.2,0,0,0,9.64-5.52.65.65,0,0,0-1.13-.66,9.92,9.92,0,0,1-8.51,4.87H11A9.94,9.94,0,0,1,1.31,27c0-.3,0-.62,0-.94A.66.66,0,0,0,0,25.93c0,.36,0,.72,0,1.07a11.22,11.22,0,0,0,11,11Z"/><path d="M8.9,32.86a6.13,6.13,0,0,1-4.12-4.61.65.65,0,1,0-1.29.22,7.43,7.43,0,0,0,5,5.65.57.57,0,0,0,.18,0,.66.66,0,0,0,.18-1.29Z"/><path d="M11.17,39.76a.65.65,0,0,0-.65.66v3.76a.66.66,0,0,0,1.31,0V40.42A.65.65,0,0,0,11.17,39.76Z"/><path d="M3.06,38.19.4,40.85A.66.66,0,0,0,.87,42a.65.65,0,0,0,.46-.19L4,39.12a.65.65,0,0,0,0-.93A.67.67,0,0,0,3.06,38.19Z"/><path d="M19.29,38.19a.67.67,0,0,0-.93,0,.65.65,0,0,0,0,.93L21,41.78a.62.62,0,0,0,.46.19.66.66,0,0,0,.47-.19.67.67,0,0,0,0-.93Z"/></g></g></svg>