<svg xmlns="http://www.w3.org/2000/svg" xmlns:xlink="http://www.w3.org/1999/xlink" viewBox="0 0 1388 708"><defs><style>.cls-1{isolation:isolate;}.cls-2{fill:url(#linear-gradient);}.cls-3{fill:url(#linear-gradient-2);}.cls-4{fill:url(#linear-gradient-3);}.cls-5{fill:url(#linear-gradient-4);}.cls-6{fill:url(#linear-gradient-5);}.cls-7{fill:url(#linear-gradient-6);}.cls-8{opacity:0.14;fill:url(#linear-gradient-7);}.cls-13,.cls-17,.cls-19,.cls-20,.cls-22,.cls-23,.cls-24,.cls-27,.cls-29,.cls-31,.cls-33,.cls-34,.cls-35,.cls-36,.cls-37,.cls-38,.cls-41,.cls-42,.cls-43,.cls-44,.cls-45,.cls-46,.cls-48,.cls-8,.cls-9{mix-blend-mode:multiply;}.cls-17,.cls-19,.cls-20,.cls-22,.cls-23,.cls-24,.cls-29,.cls-31,.cls-34,.cls-35,.cls-36,.cls-37,.cls-38,.cls-41,.cls-42,.cls-43,.cls-44,.cls-45,.cls-46,.cls-48,.cls-9{opacity:0.32;}.cls-9{fill:url(#linear-gradient-8);}.cls-10{fill:url(#linear-gradient-9);}.cls-11{fill:url(#linear-gradient-10);}.cls-12,.cls-14,.cls-26,.cls-39,.cls-40{mix-blend-mode:overlay;}.cls-12{fill:url(#linear-gradient-11);}.cls-13{fill:url(#linear-gradient-12);}.cls-14{fill:#f7ffff;opacity:0.37;}.cls-15{fill:url(#linear-gradient-13);}.cls-16{fill:#634e1b;}.cls-17{fill:url(#linear-gradient-14);}.cls-18{fill:url(#linear-gradient-15);}.cls-19{fill:url(#linear-gradient-16);}.cls-20{fill:url(#linear-gradient-17);}.cls-21{fill:#2e4210;}.cls-22{fill:url(#linear-gradient-18);}.cls-23{fill:url(#linear-gradient-19);}.cls-24{fill:url(#linear-gradient-20);}.cls-25{fill:url(#linear-gradient-21);}.cls-26{fill:url(#linear-gradient-22);}.cls-27{fill:url(#linear-gradient-23);}.cls-28{fill:url(#linear-gradient-24);}.cls-29{fill:url(#linear-gradient-25);}.cls-30{fill:url(#linear-gradient-26);}.cls-31{fill:url(#linear-gradient-27);}.cls-32{fill:url(#linear-gradient-28);}.cls-33{fill:url(#linear-gradient-29);}.cls-34{fill:url(#linear-gradient-30);}.cls-35{fill:url(#linear-gradient-31);}.cls-36{fill:url(#linear-gradient-32);}.cls-37{fill:url(#linear-gradient-33);}.cls-38{fill:url(#linear-gradient-34);}.cls-39{fill:url(#linear-gradient-35);}.cls-40{fill:url(#linear-gradient-36);}.cls-41{fill:url(#linear-gradient-37);}.cls-42{fill:url(#linear-gradient-38);}.cls-43{fill:url(#linear-gradient-39);}.cls-44{fill:url(#linear-gradient-40);}.cls-45{fill:url(#linear-gradient-41);}.cls-46{fill:url(#linear-gradient-42);}.cls-47{fill:url(#linear-gradient-43);}.cls-48{fill:url(#linear-gradient-44);}</style><linearGradient id="linear-gradient" x1="702.55" y1="-88.41" x2="691.73" y2="449.04" gradientUnits="userSpaceOnUse"><stop offset="0" stop-color="#21adc2"/><stop offset="0.02" stop-color="#27afc2"/><stop offset="0.28" stop-color="#66c3c0"/><stop offset="0.51" stop-color="#98d2bf"/><stop offset="0.71" stop-color="#bcdebe"/><stop offset="0.88" stop-color="#d2e4bd"/><stop offset="0.98" stop-color="#dae7bd"/></linearGradient><linearGradient id="linear-gradient-2" x1="-2382.98" y1="447.7" x2="-2325.63" y2="766.95" gradientTransform="matrix(-1, 0.08, 0.08, 1, -2199.22, 83.48)" gradientUnits="userSpaceOnUse"><stop offset="0" stop-color="#f7ffff"/><stop offset="0.01" stop-color="#f7ffff" stop-opacity="0.96"/><stop offset="0.05" stop-color="#f7ffff" stop-opacity="0.78"/><stop offset="0.09" stop-color="#f7ffff" stop-opacity="0.61"/><stop offset="0.14" stop-color="#f7ffff" stop-opacity="0.47"/><stop offset="0.2" stop-color="#f7ffff" stop-opacity="0.34"/><stop offset="0.25" stop-color="#f7ffff" stop-opacity="0.23"/><stop offset="0.32" stop-color="#f7ffff" stop-opacity="0.15"/><stop offset="0.4" stop-color="#f7ffff" stop-opacity="0.08"/><stop offset="0.49" stop-color="#f7ffff" stop-opacity="0.03"/><stop offset="0.63" stop-color="#f7ffff" stop-opacity="0.01"/><stop offset="1" stop-color="#f7ffff" stop-opacity="0"/></linearGradient><linearGradient id="linear-gradient-3" x1="-2444.29" y1="391.29" x2="-2389.27" y2="697.58" xlink:href="#linear-gradient-2"/><linearGradient id="linear-gradient-4" x1="667.28" y1="309.69" x2="738.24" y2="704.74" gradientTransform="matrix(1, 0, 0, 1, 0, 0)" xlink:href="#linear-gradient-2"/><linearGradient id="linear-gradient-5" x1="1173.18" y1="313.43" x2="1230.08" y2="630.16" gradientTransform="matrix(1, 0, 0, 1, 0, 0)" xlink:href="#linear-gradient-2"/><linearGradient id="linear-gradient-6" x1="649.34" y1="709.68" x2="707.23" y2="400.94" gradientUnits="userSpaceOnUse"><stop offset="0" stop-color="#5d4722"/><stop offset="1" stop-color="#959231"/></linearGradient><linearGradient id="linear-gradient-7" x1="677.15" y1="537.49" x2="705.07" y2="388.62" gradientUnits="userSpaceOnUse"><stop offset="0" stop-color="#5d731f"/><stop offset="1" stop-color="#969326"/></linearGradient><linearGradient id="linear-gradient-8" x1="662.6" y1="650.98" x2="708.31" y2="407.22" xlink:href="#linear-gradient-7"/><linearGradient id="linear-gradient-9" x1="1097.68" y1="174.75" x2="1154.58" y2="491.48" gradientTransform="matrix(1, 0, 0, 1, 0, 0)" xlink:href="#linear-gradient-2"/><linearGradient id="linear-gradient-10" x1="1180.18" y1="483.85" x2="1159.61" y2="739.77" gradientUnits="userSpaceOnUse"><stop offset="0" stop-color="#8a9023"/><stop offset="1" stop-color="#344726"/></linearGradient><linearGradient id="linear-gradient-11" x1="1112.81" y1="403.87" x2="1295.82" y2="764.81" gradientUnits="userSpaceOnUse"><stop offset="0" stop-color="#f7ffd0"/><stop offset="1" stop-color="#627d2b" stop-opacity="0"/></linearGradient><linearGradient id="linear-gradient-12" x1="1253.4" y1="535.69" x2="1445.33" y2="914.23" xlink:href="#linear-gradient-11"/><linearGradient id="linear-gradient-13" x1="-1580.12" y1="467.41" x2="-1590.69" y2="389.9" gradientTransform="matrix(-1, 0, 0, 1, -236.34, 0)" xlink:href="#linear-gradient-6"/><linearGradient id="linear-gradient-14" x1="-2243.32" y1="480.79" x2="-2222.79" y2="480.79" gradientTransform="translate(3577.46)" xlink:href="#linear-gradient-7"/><linearGradient id="linear-gradient-15" x1="-1648.78" y1="486.66" x2="-1655.4" y2="438.14" gradientTransform="matrix(-1, 0, 0, 1, -372.27, 0)" xlink:href="#linear-gradient-6"/><linearGradient id="linear-gradient-16" x1="-2171.06" y1="494.93" x2="-2158.04" y2="494.93" gradientTransform="translate(3441.53)" xlink:href="#linear-gradient-7"/><linearGradient id="linear-gradient-17" x1="547.01" y1="512.05" x2="525.86" y2="356.98" xlink:href="#linear-gradient-7"/><linearGradient id="linear-gradient-18" x1="937.3" y1="419.04" x2="943.63" y2="419.04" xlink:href="#linear-gradient-7"/><linearGradient id="linear-gradient-19" x1="891.44" y1="419.01" x2="897.76" y2="419.01" xlink:href="#linear-gradient-7"/><linearGradient id="linear-gradient-20" x1="950.96" y1="421.14" x2="954.9" y2="421.14" xlink:href="#linear-gradient-7"/><linearGradient id="linear-gradient-21" x1="-2482.32" y1="320.6" x2="-2506.15" y2="617.17" gradientTransform="matrix(-1, -0.05, -0.05, 1, -2244.18, -53.57)" xlink:href="#linear-gradient-10"/><linearGradient id="linear-gradient-22" x1="-2545.07" y1="232.51" x2="-2357.11" y2="603.21" gradientTransform="matrix(-1, -0.05, -0.05, 1, -2244.18, -53.57)" xlink:href="#linear-gradient-11"/><linearGradient id="linear-gradient-23" x1="-2410.39" y1="356.76" x2="-2180.39" y2="810.36" gradientTransform="matrix(-1, -0.05, -0.05, 1, -2244.18, -53.57)" xlink:href="#linear-gradient-11"/><linearGradient id="linear-gradient-24" x1="-2307.02" y1="389.51" x2="-2315.89" y2="324.5" gradientTransform="matrix(-1, 0, 0, 1, -2231.27, 0)" xlink:href="#linear-gradient-6"/><linearGradient id="linear-gradient-25" x1="-1515.63" y1="401.6" x2="-1496.6" y2="401.6" gradientTransform="translate(1582.53)" xlink:href="#linear-gradient-7"/><linearGradient id="linear-gradient-26" x1="-2363.37" y1="398.18" x2="-2369.87" y2="350.53" gradientTransform="matrix(-1, 0, 0, 1, -2231.27, 0)" xlink:href="#linear-gradient-6"/><linearGradient id="linear-gradient-27" x1="-1456.4" y1="406.29" x2="-1443.45" y2="406.29" gradientTransform="translate(1582.53)" xlink:href="#linear-gradient-7"/><linearGradient id="linear-gradient-28" x1="302.21" y1="1152.81" x2="775.22" y2="562.76" gradientUnits="userSpaceOnUse"><stop offset="0" stop-color="#3e4917"/><stop offset="1" stop-color="#627d2b"/></linearGradient><linearGradient id="linear-gradient-29" x1="758.62" y1="325.64" x2="557.27" y2="947.99" xlink:href="#linear-gradient-11"/><linearGradient id="linear-gradient-30" x1="245.28" y1="419.96" x2="251.53" y2="419.96" gradientTransform="translate(200.06)" xlink:href="#linear-gradient-7"/><linearGradient id="linear-gradient-31" x1="260.16" y1="420.13" x2="264.02" y2="420.13" gradientTransform="translate(175.38)" xlink:href="#linear-gradient-7"/><linearGradient id="linear-gradient-32" x1="289.17" y1="417.85" x2="293.13" y2="417.85" gradientTransform="translate(175.38)" xlink:href="#linear-gradient-7"/><linearGradient id="linear-gradient-33" x1="294.7" y1="417.7" x2="297.49" y2="417.7" gradientTransform="translate(175.38)" xlink:href="#linear-gradient-7"/><linearGradient id="linear-gradient-34" x1="296.99" y1="417.7" x2="299.78" y2="417.7" gradientTransform="translate(175.38)" xlink:href="#linear-gradient-7"/><linearGradient id="linear-gradient-35" x1="1116.64" y1="494.27" x2="1067.9" y2="644.92" xlink:href="#linear-gradient-11"/><linearGradient id="linear-gradient-36" x1="-2509.19" y1="493.34" x2="-2555" y2="634.94" gradientTransform="matrix(-1, 0, 0, 1, -2231.27, 0)" xlink:href="#linear-gradient-11"/><linearGradient id="linear-gradient-37" x1="1006.41" y1="524.34" x2="1033.12" y2="524.34" xlink:href="#linear-gradient-7"/><linearGradient id="linear-gradient-38" x1="1054.71" y1="528.7" x2="1088.14" y2="528.7" xlink:href="#linear-gradient-7"/><linearGradient id="linear-gradient-39" x1="1121.58" y1="533.4" x2="1144.84" y2="533.4" xlink:href="#linear-gradient-7"/><linearGradient id="linear-gradient-40" x1="1278.08" y1="591.46" x2="1297.22" y2="591.46" xlink:href="#linear-gradient-7"/><linearGradient id="linear-gradient-41" x1="211.87" y1="552.58" x2="235.52" y2="552.58" gradientTransform="translate(247.63)" xlink:href="#linear-gradient-7"/><linearGradient id="linear-gradient-42" x1="299.89" y1="507.4" x2="319.05" y2="507.4" gradientTransform="translate(76.48)" xlink:href="#linear-gradient-7"/><linearGradient id="linear-gradient-43" x1="-1604.53" y1="478.8" x2="-1617.99" y2="380.08" gradientTransform="matrix(-1, 0, 0, 1, -286.08, 0)" xlink:href="#linear-gradient-6"/><linearGradient id="linear-gradient-44" x1="-2221.7" y1="496.24" x2="-2195.45" y2="496.24" gradientTransform="translate(3527.72)" xlink:href="#linear-gradient-7"/></defs><title>lanscape</title><g class="cls-1"><g id="Layer_2" data-name="Layer 2"><g id="Layer_2-2" data-name="Layer 2"><polygon class="cls-2" points="695.45 0 694.17 0 0 0 0 708 694.17 708 695.45 708 1387.28 708 1387.28 0 695.45 0"/><path class="cls-3" d="M0,322.8v10.32s28.08,11.39,41.76,16,21.75-13.18,40.95-10.94,16.34,13.9,42.94,13.64S142,365.69,170.93,371s14.3,12.15,31.76,16.44,17.93,10,26.1,16.91,16.54-7.06,45-7.47S309.35,413,309.35,413l12.76-6.75c22.36-5.62,31.3,10.77,45.14,17.26S417,427.05,417,427.05s-18.6,73.32-31.51,117.45L0,575.81Z"/><path class="cls-4" d="M0,305.25c17.31,2.4-2.11,11.39,11.58,16s21.74-13.19,40.94-10.94,16.34,13.89,42.94,13.63,16.34,13.89,45.29,19.15,14.3,12.16,31.76,16.45,17.92,10,26.09,16.9,16.54-7.05,45-7.47,35.54,16.14,35.54,16.14l12.76-6.74c22.36-5.63,34.07,6.71,45.13,17.26C425.15,479.56,513.7,491,513.7,491s-49.33,46.53-158.42,25.69L0,548S.26,327.83,0,305.25Z"/><path class="cls-5" d="M1072,455.82c-13.27-7.59-20.85-24.66-43.59-20.86l-13.27,5.68c1.13-.48-7.62-9.82-8.13-10.22-7.56-6-16-11.94-24.88-15.65l-16.84-7c-5.7-2.38-11.46-4.77-17.55-5.81-8.45-1.44-17.77-.38-25-5-2.52-1.64-4.63-3.92-7.32-5.27-4.28-2.15-9.33-1.67-14.11-1.81-17.45-.49-33.83-9.78-51.28-9.74-5.4,0-10.8.92-16.18.45-11.87-1.06-22.18-8.69-33.83-11.24-11.44-2.5-23.6,0-34.94-2.91-7.66-2-14.47-6.35-21.81-9.33-12.81-5.21-24.67-.15-37.77-1.3-10.51-.92-19.57-8.48-30.08-9.43-6.74-.61-13.39,1.57-19.81,3.72-9.92,3.32-22.19,8.62-32.57,4.86-9.85-3.57-17.78-9.41-28.87-7.19-19,3.8-15.15,15.18-41.68,17.07S537.42,380,509,387.54s-13.26,13.28-30.32,19-17.06,11.38-24.64,19-17-5.69-45.48-3.79-34.11,19-34.11,19L361.17,435c-22.74-3.8-30.32,13.27-43.59,20.86s-49.28,7.12-49.28,7.12S292.77,536,309.21,577H1080.4c16.44-41,40.91-114.06,40.91-114.06S1085.3,463.4,1072,455.82Z"/><path class="cls-6" d="M1387.28,281.69c-4.9,4.2-.56,10-10.89,12.27-17.05,3.79-22.74,13.28-36,19s-22.74-11.38-41.69-7.59-15.16,15.17-41.7,17.07-15.16,15.17-43.59,22.76-13.26,13.28-30.32,19-17.06,11.38-24.64,19-17-5.69-45.48-3.79-34.12,19-34.12,19l-13.26-5.69c-22.75-3.79-30.33,13.28-43.59,20.87S972.71,421,972.71,421s24.47,71.58,40.91,114.52h373.66Z"/><path class="cls-7" d="M598.57,407c-142.9,4-362.15,13.47-531.05,60.17C136.33,536,356,642,356,642h677.62S1253.29,536,1322.1,467.17C1153.19,420.47,772.4,402.13,598.57,407Z"/><path class="cls-8" d="M1118.31,443.34c-25.83-8.92-84.62-17.83-152-25.43-114.62-8.43-428.44-8.43-543.07,0-67.35,7.6-126.14,16.51-152,25.43,37.05-2.65,320.23,0,320.23,0L377.17,475.12l317,40.41v.16l.64-.08.64.08v-.16l317-40.41L798.07,443.34S1081.26,440.69,1118.31,443.34Z"/><path class="cls-9" d="M694.81,452.67c-139-5.26-439.78-9.79-614.2,26.54,8,6.84,17.11,13.94,27.08,21.17C266.36,522.25,509.78,592.8,668.07,642h53.48c158.29-49.17,401.71-119.72,560.37-141.59,10-7.23,19.11-14.33,27.09-21.17C1134.59,442.88,833.82,447.41,694.81,452.67Z"/><path class="cls-10" d="M1387.28,181.05c-4.9,4.2-.56,10-10.89,12.27-17.05,3.79-22.74,13.27-36,19s-22.74-11.38-41.69-7.58-15.16,15.17-41.7,17.07-15.16,15.17-43.59,22.76-13.26,13.27-30.32,19-17.06,11.38-24.64,19-17-5.69-45.48-3.8-34.12,19-34.12,19l-13.26-5.69c-22.75-3.79-33.42,9.46-43.59,20.86-81,90.81-168.34,109.35-168.34,109.35s52.93,42.37,160,12.76h373.66Z"/><path class="cls-11" d="M1387.28,465.72c-57.61,2.54-144.58,20.26-237.21,44.1-133.8,34.43-201.14,50.32-201.14,50.32L1308,708h79.26Z"/><path class="cls-12" d="M948.93,560.14l139.62,72.48c124-78.8,228.37-119.46,298.73-138.89v-28c-57.61,2.54-144.58,20.26-237.21,44.1C1016.27,544.25,948.93,560.14,948.93,560.14Z"/><path class="cls-13" d="M1387.28,544.55c-40.17,24.13-100.18,72.09-183.9,147.67L1308,708h79.26Z"/><path class="cls-14" d="M1006.05,546.23l2.44,1.11s248.68-68.42,378.79-71.89v-9.73c-57.61,2.54-144.58,20.26-237.21,44.1Q1056.2,534,1006.05,546.23Z"/><path class="cls-15" d="M1349.83,448.9l6.51-11.53c-2.92-9.9-6.64-21.68-8.85-28.61a2,2,0,0,0-3.82,0c-.91,2.85-2.08,6.53-3.34,10.56l3.11,5.49-3.57-4c-1.19,3.82-2.45,7.9-3.64,11.86l3.82,6.77-4.37-4.93c-2.83,9.44-5.16,17.82-5.16,19.8,0,4.39,11.17,11.84,11.17,11.84l4.83,2.6,2.83-1.89s11.29-8.16,11.29-12.55c0-1.54-1.59-8.08-3.55-14.87Z"/><polygon class="cls-16" points="1346.02 432.7 1345.57 471.6 1347.75 471.6 1346.02 432.7"/><path class="cls-17" d="M1346.12,470.08s-7.44.45-8.34,1.12c-.67.51-2.71,11-3.62,17.92a2.09,2.09,0,0,0,3.48,1.82c5.71-5.3,15.72-14.94,17-16.58C1354.23,472.56,1346.12,470.08,1346.12,470.08Z"/><path class="cls-18" d="M1280.38,474.79l4.17-7.38c-1.71-5.82-3.86-12.65-5.3-17.17a1.67,1.67,0,0,0-3.18,0l-1.77,5.61,2,3.52L1274,456.8c-.77,2.45-1.57,5.06-2.34,7.59l2.45,4.34-2.8-3.16c-1.81,6.05-3.3,11.41-3.3,12.68,0,2.81,7.15,7.58,7.15,7.58l3.09,1.66,1.81-1.2s7.23-5.23,7.23-8a66,66,0,0,0-2.27-9.52Z"/><polygon class="cls-16" points="1277.95 464.42 1277.65 489.32 1279.05 489.32 1277.95 464.42"/><path class="cls-19" d="M1278,488.35s-4.76.29-5.34.72c-.4.3-1.56,6.14-2.19,10.52a1.68,1.68,0,0,0,2.8,1.47c3.71-3.48,9.42-9,10.21-10C1283.2,489.94,1278,488.35,1278,488.35Z"/><path class="cls-20" d="M622.27,503.69c-20-35.63,166.16-90.69,182.62-95.27-24.31-.81-126-2.75-230.3-.42-77.81,1.74-163.82,7.5-183.87,9-67,5-126.91,13-126.91,13s141.25,43.83,172.59,53.27C529.67,511.36,576,503.69,622.27,503.69Z"/><path class="cls-21" d="M942.13,409.21l2-3.55c-.75-2.54-1.67-5.49-2.35-7.64a1,1,0,0,0-1.94,0l-.65,2.07,1,1.69-1.1-1.23c-.37,1.17-.75,2.43-1.12,3.65l1.18,2.09-1.35-1.52a46.8,46.8,0,0,0-1.59,6.1c0,1.36,3.44,3.66,3.44,3.66l1.49.8.87-.58s3.48-2.52,3.48-3.88a32.82,32.82,0,0,0-1.09-4.58Z"/><polygon class="cls-16" points="940.96 404.22 940.82 416.21 941.49 416.21 940.96 404.22"/><path class="cls-22" d="M941,415.74a13,13,0,0,0-2.57.35,30.22,30.22,0,0,0-1.12,5.51.65.65,0,0,0,1.08.56c1.76-1.63,4.84-4.59,5.25-5.1C943.49,416.5,941,415.74,941,415.74Z"/><path class="cls-21" d="M896.26,409.21l2-3.55c-.75-2.54-1.67-5.49-2.35-7.64a1,1,0,0,0-1.94,0l-.65,2.07,1,1.69-1.1-1.23c-.37,1.17-.75,2.43-1.12,3.65l1.18,2.09-1.35-1.52a46.8,46.8,0,0,0-1.59,6.1c0,1.36,3.44,3.66,3.44,3.66l1.49.8.87-.58s3.48-2.52,3.48-3.88a32.82,32.82,0,0,0-1.09-4.58Z"/><polygon class="cls-16" points="895.09 404.22 894.95 416.21 895.62 416.21 895.09 404.22"/><path class="cls-23" d="M895.12,415.74a13.1,13.1,0,0,0-2.57.35,29,29,0,0,0-1.1,5.41.68.68,0,0,0,1.14.59c1.77-1.64,4.77-4.53,5.17-5C897.62,416.5,895.12,415.74,895.12,415.74Z"/><path class="cls-21" d="M954,415l1.26-2.22c-.43-1.43-.94-3.07-1.34-4.36a.77.77,0,0,0-1.47,0c-.09.28-.18.58-.28.88l.6,1.06-.69-.77c-.23.73-.47,1.52-.7,2.28l.74,1.31-.85-.95a29.49,29.49,0,0,0-1,3.81c0,.85,2.15,2.28,2.15,2.28l.93.51.55-.37s2.17-1.57,2.17-2.42a19.93,19.93,0,0,0-.68-2.86Z"/><polygon class="cls-16" points="953.24 411.89 953.15 419.39 953.57 419.39 953.24 411.89"/><path class="cls-24" d="M953.26,419.09a8.28,8.28,0,0,0-1.61.22,18.77,18.77,0,0,0-.69,3.38.43.43,0,0,0,.72.37c1.11-1,3-2.83,3.22-3.14C954.82,419.57,953.26,419.09,953.26,419.09Z"/><path class="cls-25" d="M0,366.46c57.38,5.66,153.52,28.75,244.72,57.57,131.75,41.64,198.13,61.15,198.13,61.15L74.19,651.85,0,646.87Z"/><path class="cls-26" d="M442.85,485.18,299.51,550C180,464.58,69.21,417.64,0,394.43v-28c57.38,5.66,153.52,28.75,244.72,57.57C376.47,465.67,442.85,485.18,442.85,485.18Z"/><path class="cls-27" d="M0,445.17c38.81,26.27,102.11,78.1,181.62,158.11L74.19,651.85,0,646.87Z"/><path class="cls-14" d="M386.56,468.2l-2.5,1S129.73,386.69,0,376.18v-9.72c57.38,5.66,153.52,28.75,244.72,57.57Q337.14,453.24,386.56,468.2Z"/><path class="cls-28" d="M81.4,372.15l6.08-10.76c-1.83-6.22-4-13.23-5.86-19.12a4.38,4.38,0,0,0-8.36,0c-.24.74-.47,1.5-.72,2.27l2.9,5.13-3.33-3.75c-1.11,3.57-2.28,7.38-3.4,11.07l3.57,6.32-4.08-4.6c-2.64,8.81-4.81,16.63-4.81,18.47,0,4.11,10.42,11.06,10.42,11.06l4.51,2.42L81,388.9s10.54-7.61,10.54-11.72c0-1.43-1.48-7.53-3.31-13.87Z"/><polygon class="cls-16" points="77.86 357.03 77.43 393.33 79.47 393.33 77.86 357.03"/><path class="cls-29" d="M77.94,391.91s-6.93.42-7.78,1c-.59.45-2.33,9.26-3.23,15.67a2.31,2.31,0,0,0,3.87,2c5.41-5.05,14-13.29,15.13-14.75C85.51,394.23,77.94,391.91,77.94,391.91Z"/><path class="cls-30" d="M136,386.31l4.17-7.38c-1.61-5.45-3.59-11.79-5-16.28a2,2,0,0,0-3.74,0c-.45,1.42-1,3-1.49,4.72l2,3.52-2.29-2.58c-.76,2.45-1.56,5.06-2.33,7.6l2.45,4.33-2.8-3.15c-1.81,6-3.3,11.41-3.3,12.67,0,2.82,7.15,7.59,7.15,7.59l3.09,1.66,1.81-1.21s7.23-5.22,7.23-8a68.12,68.12,0,0,0-2.27-9.52Z"/><polygon class="cls-16" points="133.54 375.94 133.25 400.84 134.65 400.84 133.54 375.94"/><path class="cls-31" d="M133.6,399.87s-4.76.29-5.33.72c-.39.29-1.47,5.69-2.12,10a1.86,1.86,0,0,0,3.11,1.62c3.71-3.48,9.06-8.65,9.82-9.6C138.79,401.45,133.6,399.87,133.6,399.87Z"/><path class="cls-32" d="M695.5,461v0h-2v0c-139.9,3.44-447.68,26.75-693.5,160V708H1387.28V621.06C1141.46,487.76,836.4,464.45,695.5,461Z"/><path class="cls-33" d="M1242.45,596.53c-70.86-19.34-169.75-35-257-46.4-10.21-1.33-9-16.49,1.33-16.13,38.37,1.36,77,3,110.2,4.86,9.75.56,11.94-13.43,2.5-15.92-153.12-40.45-315.58-60-406-57.77h0c-96.06.12-284.46,26.31-446.13,71.27-9.3,2.58-7.07,16.36,2.57,15.89,75.48-3.71,198.55-12.41,276.66-18.14,9.63-.71,12.18,13,2.94,15.83L63.1,692.15C54.2,694.86,56.16,708,65.46,708H733.9l.6,0,241.38-17.79c8.93-.66,10.34-13.19,1.78-15.82l-15.29-4.7c-8.26-2.54-7-13,1.22-15.76,65.67-21.91,170.59-41.91,278-41.58C1250.31,612.36,1250.83,598.81,1242.45,596.53Z"/><path class="cls-21" d="M450.1,410.3l2-3.55c-.77-2.62-1.73-5.67-2.42-7.83a.94.94,0,0,0-1.8,0l-.72,2.27,1,1.69-1.1-1.23c-.37,1.17-.76,2.43-1.12,3.65l1.18,2.09-1.35-1.52a46.8,46.8,0,0,0-1.59,6.1c0,1.36,3.44,3.66,3.44,3.66l1.49.8.87-.58s3.48-2.52,3.48-3.88a32.82,32.82,0,0,0-1.09-4.58Z"/><polygon class="cls-16" points="448.93 405.31 448.79 417.3 449.46 417.3 448.93 405.31"/><path class="cls-34" d="M449,416.83a13,13,0,0,0-2.57.35,27.26,27.26,0,0,0-1,4.94.85.85,0,0,0,1.42.74c1.79-1.68,4.45-4.24,4.82-4.71C451.46,417.59,449,416.83,449,416.83Z"/><path class="cls-21" d="M438.47,414.19l1.26-2.22c-.52-1.77-1.18-3.84-1.61-5.2a.49.49,0,0,0-.93,0c-.16.5-.35,1.09-.55,1.73l.6,1.06-.69-.78c-.23.74-.47,1.53-.7,2.29l.74,1.3-.84-.95a28.46,28.46,0,0,0-1,3.82c0,.84,2.15,2.28,2.15,2.28l.94.5.54-.36s2.18-1.58,2.18-2.42a20.19,20.19,0,0,0-.69-2.87Z"/><polygon class="cls-16" points="437.74 411.07 437.65 418.56 438.07 418.56 437.74 411.07"/><path class="cls-35" d="M437.76,418.27a8.28,8.28,0,0,0-1.61.22,14.32,14.32,0,0,0-.59,2.74.65.65,0,0,0,1.08.58c1.1-1,2.55-2.44,2.77-2.72C439.32,418.75,437.76,418.27,437.76,418.27Z"/><path class="cls-21" d="M467.58,411.71l1.25-2.22c-.48-1.62-1.07-3.51-1.5-4.86a.6.6,0,0,0-1.15,0c-.13.42-.28.88-.43,1.38l.6,1.06-.69-.77c-.23.73-.47,1.52-.7,2.28l.73,1.31-.84-.95a29.49,29.49,0,0,0-1,3.81c0,.85,2.15,2.29,2.15,2.29l.93.5.54-.37s2.18-1.57,2.18-2.42a21.5,21.5,0,0,0-.68-2.86Z"/><polygon class="cls-16" points="466.84 408.59 466.76 416.09 467.18 416.09 466.84 408.59"/><path class="cls-36" d="M466.86,415.79a8.19,8.19,0,0,0-1.6.22,19.19,19.19,0,0,0-.7,3.42.41.41,0,0,0,.69.36c1.11-1,3-2.86,3.26-3.17C468.42,416.27,466.86,415.79,466.86,415.79Z"/><path class="cls-21" d="M472.23,413.27l.86-1.53c-.59-2-1.43-4.6-1.43-4.6l-.7,2.2.42.73-.48-.54c-.16.51-.32,1.05-.48,1.58l.51.9-.58-.66a19.82,19.82,0,0,0-.69,2.63c0,.59,1.48,1.58,1.48,1.58l.65.34.37-.25s1.5-1.08,1.5-1.67a14,14,0,0,0-.47-2Z"/><polygon class="cls-16" points="471.72 411.12 471.66 416.28 471.95 416.28 471.72 411.12"/><path class="cls-37" d="M471.73,416.08a5.6,5.6,0,0,0-1.1.15,14.82,14.82,0,0,0-.54,3.09c.12-.06,2.54-2.37,2.78-2.67C472.81,416.41,471.73,416.08,471.73,416.08Z"/><path class="cls-21" d="M474.52,413.27l.86-1.53c-.59-2-1.43-4.6-1.43-4.6s-.32,1-.7,2.2l.42.73-.48-.54c-.16.51-.32,1.05-.48,1.58l.51.9-.59-.66A20.87,20.87,0,0,0,472,414c0,.59,1.48,1.58,1.48,1.58l.65.34.37-.25s1.5-1.08,1.5-1.67a14,14,0,0,0-.47-2Z"/><polygon class="cls-16" points="474.01 411.12 473.95 416.28 474.24 416.28 474.01 411.12"/><path class="cls-38" d="M474,416.08a5.69,5.69,0,0,0-1.11.15,14.88,14.88,0,0,0-.53,3.09c.12-.06,2.54-2.37,2.78-2.67C475.1,416.41,474,416.08,474,416.08Z"/><path class="cls-39" d="M927.76,506.9C1088,576.3,1197.14,632,1323.05,708h65l-.72-86.57C1184.85,512.16,946.09,477.1,785.21,466.21A572.92,572.92,0,0,1,927.76,506.9Z"/><path class="cls-40" d="M461.86,506.9C301.63,576.3,194.86,721.38,0,670.55V621.43C202.43,512.16,443.52,477.1,604.4,466.21A572.86,572.86,0,0,0,461.86,506.9Z"/><path class="cls-14" d="M1387.28,619.43c-228.83-123.22-505.9-149.6-658.94-158.33a514.39,514.39,0,0,0-68.28.06C506.77,471.16,226.84,496.54,0,619.43V708C181.87,597.93,500.07,478.08,657.07,467.9c14-.91,62.71-.84,77.51.14,157.81,10.36,470.83,130.38,652.7,240Z"/><path class="cls-21" d="M1026.79,483l8.5-15.06c-3.49-11.83-7.85-25.72-10.78-34.93a3.43,3.43,0,0,0-6.53,0c-1,3.3-2.28,7.19-3.58,11.38l4.05,7.17-4.66-5.24c-1.56,5-3.2,10.32-4.75,15.48l5,8.84-5.72-6.43c-3.68,12.32-6.72,23.26-6.72,25.84,0,5.74,14.57,15.46,14.57,15.46l6.31,3.39,3.69-2.46s14.74-10.65,14.74-16.39c0-2-2.07-10.54-4.63-19.41Z"/><polygon class="cls-16" points="1021.82 461.8 1021.23 512.58 1024.08 512.58 1021.82 461.8"/><path class="cls-41" d="M1022,510.59s-9.71.59-10.88,1.47c-.85.64-3.4,13.59-4.63,22.6a3,3,0,0,0,5,2.61c7.53-7,20-19,21.64-21.09C1032.53,513.83,1022,510.59,1022,510.59Z"/><path class="cls-21" d="M1080.22,476.86,1090.86,458c-4.6-15.59-10.41-34-14.06-45.49a3.68,3.68,0,0,0-7,0c-1.43,4.47-3.18,10-5.06,16l5.07,9L1064,431c-2,6.24-4,12.9-6,19.36l6.24,11.06-7.15-8.05c-4.61,15.42-8.41,29.11-8.41,32.33,0,7.18,18.23,19.35,18.23,19.35l7.9,4.24,4.61-3.08s18.44-13.33,18.44-20.51c0-2.51-2.59-13.19-5.8-24.28Z"/><polygon class="cls-16" points="1074.01 450.41 1073.27 513.93 1076.83 513.93 1074.01 450.41"/><path class="cls-42" d="M1074.17,511.45s-12.14.73-13.61,1.84c-1.07.8-4.28,17.17-5.81,28.45a3.7,3.7,0,0,0,6.18,3.21c9.4-8.76,25.12-23.89,27.21-26.51C1087.41,515.49,1074.17,511.45,1074.17,511.45Z"/><path class="cls-21" d="M1139.19,497.66l7.58-13.43c-3-10.3-6.81-22.34-9.42-30.55a3.26,3.26,0,0,0-6.21,0c-.89,2.8-1.92,6.05-3,9.53l3.61,6.4-4.15-4.68c-1.39,4.46-2.86,9.21-4.25,13.81l4.46,7.89-5.1-5.74c-3.29,11-6,20.75-6,23.05,0,5.12,13,13.79,13,13.79l5.63,3,3.29-2.2s13.15-9.5,13.15-14.62c0-1.79-1.85-9.4-4.13-17.31Z"/><polygon class="cls-16" points="1134.76 478.8 1134.23 524.09 1136.77 524.09 1134.76 478.8"/><path class="cls-43" d="M1134.87,522.32s-8.66.52-9.7,1.31c-.64.48-2.35,8.74-3.53,16.13a4.07,4.07,0,0,0,6.82,3.6c6.61-6.24,15.09-14.45,16.38-16.06C1144.31,525.2,1134.87,522.32,1134.87,522.32Z"/><path class="cls-21" d="M1292.69,561.76l6.08-10.77c-2.38-8.08-5.34-17.51-7.42-24.08a2.74,2.74,0,0,0-5.23,0c-.69,2.16-1.46,4.62-2.28,7.24l2.89,5.13-3.33-3.75c-1.11,3.57-2.28,7.37-3.4,11.07l3.57,6.31-4.08-4.6c-2.64,8.82-4.81,16.64-4.81,18.48,0,4.1,10.42,11.05,10.42,11.05l4.51,2.43,2.64-1.76s10.53-7.62,10.53-11.72c0-1.44-1.48-7.54-3.31-13.88Z"/><polygon class="cls-16" points="1289.15 546.64 1288.72 582.94 1290.76 582.94 1289.15 546.64"/><path class="cls-44" d="M1289.23,581.52s-6.93.42-7.77,1.05c-.62.46-2.5,10.09-3.36,16.54a2,2,0,0,0,3.36,1.74c5.35-5,14.55-13.82,15.76-15.34C1296.8,583.83,1289.23,581.52,1289.23,581.52Z"/><path class="cls-21" d="M477.51,516l7.58-13.42c-2.73-9.27-6.06-19.94-8.6-28a4.12,4.12,0,0,0-7.85,0c-.68,2.16-1.42,4.5-2.19,7l3.62,6.4-4.16-4.68c-1.39,4.45-2.85,9.2-4.24,13.81l4.45,7.88L461,499.25c-3.29,11-6,20.76-6,23.06,0,5.11,13,13.79,13,13.79l5.63,3,3.29-2.19s13.15-9.51,13.15-14.62c0-1.8-1.85-9.41-4.14-17.32Z"/><polygon class="cls-16" points="473.08 497.16 472.55 542.45 475.09 542.45 473.08 497.16"/><path class="cls-45" d="M473.19,540.68s-8.66.53-9.71,1.31c-.72.55-2.8,11-4,18.92a3.12,3.12,0,0,0,5.22,2.72c6.77-6.33,17-16.18,18.4-18C482.63,543.57,473.19,540.68,473.19,540.68Z"/><path class="cls-21" d="M391,477.66l6.08-10.77c-2.38-8-5.32-17.42-7.4-24a2.77,2.77,0,0,0-5.29,0c-.68,2.13-1.44,4.56-2.25,7.14l2.9,5.13-3.33-3.75c-1.11,3.57-2.29,7.37-3.4,11.07l3.57,6.31-4.09-4.6C375.17,473,373,480.85,373,482.69c0,4.1,10.42,11.05,10.42,11.05l4.52,2.43,2.63-1.76s10.54-7.62,10.54-11.72c0-1.44-1.48-7.54-3.31-13.88Z"/><polygon class="cls-16" points="387.46 462.54 387.03 498.84 389.07 498.84 387.46 462.54"/><path class="cls-46" d="M387.55,497.42s-6.94.42-7.78,1.05c-.63.47-2.53,10.24-3.38,16.7a2,2,0,0,0,3.27,1.69c5.33-4.95,14.65-13.92,15.87-15.45C395.11,499.73,387.55,497.42,387.55,497.42Z"/><path class="cls-47" d="M1326.12,455.31l8.27-14.63c-3.76-12.74-8.55-27.92-11.35-36.68a2.42,2.42,0,0,0-4.62,0c-1.17,3.67-2.7,8.47-4.35,13.75l3.94,7-4.53-5.1c-1.51,4.85-3.11,10-4.62,15.05l4.85,8.6-5.55-6.26c-3.59,12-6.54,22.62-6.54,25.13,0,5.58,14.17,15,14.17,15l6.13,3.3,3.59-2.39s14.33-10.36,14.33-15.94c0-2-2-10.25-4.5-18.87Z"/><polygon class="cls-16" points="1321.29 434.75 1320.71 484.12 1323.48 484.12 1321.29 434.75"/><path class="cls-48" d="M1321.41,482.19s-9.43.57-10.58,1.43c-.9.68-3.78,15.69-4.8,24.34a2.08,2.08,0,0,0,3.48,1.77c7-6.41,21-19.91,22.76-22.1C1331.7,485.34,1321.41,482.19,1321.41,482.19Z"/></g></g></g></svg>