<svg xmlns="http://www.w3.org/2000/svg" viewBox="0 0 43.62 43.11"><defs><style>.cls-1{fill:#fec007;}.cls-2{fill:#fe9700;}.cls-3,.cls-4,.cls-5{fill:none;}.cls-3,.cls-4{stroke:#000;stroke-width:2px;}.cls-3{stroke-miterlimit:10;}.cls-4{stroke-linecap:round;stroke-linejoin:round;}</style></defs><title>normal</title><g id="Layer_2" data-name="Layer 2"><g id="Layer_2-2" data-name="Layer 2"><circle class="cls-1" cx="21.81" cy="21.56" r="10"/><path class="cls-2" d="M22.55,11.19c-3,0-7.45,2.71-9.29,4.82A10,10,0,0,1,27.36,30.1a13.83,13.83,0,0,0,4.19-8.91C31.55,15.67,28.07,11.19,22.55,11.19Z"/><circle class="cls-3" cx="21.81" cy="21.56" r="10"/><line class="cls-4" x1="1" y1="20.39" x2="6.99" y2="20.72"/><line class="cls-5" x1="3.03" y1="12.51" x2="8.43" y2="15.11"/><line class="cls-4" x1="3.55" y1="11.46" x2="8.8" y2="14.37"/><line class="cls-5" x1="8.81" y1="5.25" x2="12.55" y2="9.94"/><line class="cls-4" x1="9.74" y1="4.55" x2="13.22" y2="9.44"/><line class="cls-5" x1="17.17" y1="1.22" x2="18.5" y2="7.07"/><line class="cls-4" x1="18.32" y1="1" x2="19.32" y2="6.92"/><line class="cls-5" x1="26.45" y1="1.22" x2="25.12" y2="7.07"/><line class="cls-4" x1="27.59" y1="1.51" x2="25.93" y2="7.28"/><line class="cls-5" x1="34.82" y1="5.25" x2="31.07" y2="9.94"/><line class="cls-4" x1="35.7" y1="6.01" x2="31.7" y2="10.49"/><line class="cls-5" x1="40.6" y1="12.51" x2="35.19" y2="15.11"/><line class="cls-4" x1="41.09" y1="13.57" x2="35.55" y2="15.87"/><line class="cls-5" x1="42.68" y1="21.56" x2="36.68" y2="21.56"/><line class="cls-4" x1="42.62" y1="22.72" x2="36.63" y2="22.39"/><line class="cls-5" x1="40.6" y1="30.6" x2="35.19" y2="28"/><line class="cls-4" x1="40.07" y1="31.65" x2="34.82" y2="28.74"/><line class="cls-5" x1="34.82" y1="37.86" x2="31.07" y2="33.17"/><line class="cls-4" x1="33.88" y1="38.56" x2="30.4" y2="33.67"/><line class="cls-5" x1="26.45" y1="41.89" x2="25.12" y2="36.04"/><line class="cls-4" x1="25.3" y1="42.11" x2="24.3" y2="36.19"/><line class="cls-5" x1="17.17" y1="41.89" x2="18.5" y2="36.04"/><line class="cls-4" x1="16.04" y1="41.6" x2="17.7" y2="35.83"/><line class="cls-5" x1="8.81" y1="37.86" x2="12.55" y2="33.17"/><line class="cls-4" x1="7.92" y1="37.1" x2="11.92" y2="32.63"/><line class="cls-5" x1="3.03" y1="30.6" x2="8.43" y2="28"/><line class="cls-4" x1="2.53" y1="29.54" x2="8.08" y2="27.24"/><line class="cls-5" x1="0.94" y1="21.56" x2="6.95" y2="21.56"/></g></g></svg>