<svg xmlns="http://www.w3.org/2000/svg" viewBox="0 0 33.37 33.37"><defs><style>.cls-1{fill:#f7d57f;}.cls-2{fill:#fec007;}.cls-3,.cls-4,.cls-5{fill:none;}.cls-3,.cls-4{stroke:#000;stroke-width:2px;}.cls-3{stroke-miterlimit:10;}.cls-4{stroke-linecap:round;stroke-linejoin:round;}</style></defs><title>low</title><g id="Layer_2" data-name="Layer 2"><g id="Layer_2-2" data-name="Layer 2"><circle class="cls-1" cx="16.69" cy="16.69" r="10"/><path class="cls-2" d="M17.43,6.32c-3,0-7.46,2.71-9.29,4.82A10,10,0,0,1,22.23,25.23a13.79,13.79,0,0,0,4.2-8.91C26.43,10.8,23,6.32,17.43,6.32Z"/><circle class="cls-3" cx="16.69" cy="16.69" r="10"/><line class="cls-4" x1="1" y1="15.66" x2="2" y2="15.72"/><line class="cls-5" x1="3.07" y1="8.82" x2="3.93" y2="9.32"/><line class="cls-4" x1="3.6" y1="7.94" x2="4.43" y2="8.5"/><line class="cls-5" x1="8.82" y1="3.07" x2="9.32" y2="3.93"/><line class="cls-4" x1="9.73" y1="2.58" x2="10.18" y2="3.48"/><line class="cls-5" x1="16.69" y1="0.95" x2="16.69" y2="1.95"/><line class="cls-4" x1="17.72" y1="1" x2="17.65" y2="2"/><line class="cls-5" x1="24.55" y1="3.07" x2="24.05" y2="3.93"/><line class="cls-4" x1="25.43" y1="3.6" x2="24.87" y2="4.43"/><line class="cls-5" x1="30.31" y1="8.82" x2="29.44" y2="9.32"/><line class="cls-4" x1="30.79" y1="9.73" x2="29.89" y2="10.18"/><line class="cls-5" x1="32.43" y1="16.69" x2="31.43" y2="16.69"/><line class="cls-4" x1="32.37" y1="17.72" x2="31.38" y2="17.65"/><line class="cls-5" x1="30.31" y1="24.55" x2="29.44" y2="24.05"/><line class="cls-4" x1="29.77" y1="25.43" x2="28.94" y2="24.87"/><line class="cls-5" x1="24.55" y1="30.31" x2="24.05" y2="29.44"/><line class="cls-4" x1="23.64" y1="30.79" x2="23.2" y2="29.89"/><line class="cls-5" x1="16.69" y1="32.43" x2="16.69" y2="31.43"/><line class="cls-4" x1="15.66" y1="32.37" x2="15.72" y2="31.38"/><line class="cls-5" x1="8.82" y1="30.31" x2="9.32" y2="29.44"/><line class="cls-4" x1="7.94" y1="29.77" x2="8.5" y2="28.94"/><line class="cls-5" x1="3.07" y1="24.55" x2="3.93" y2="24.05"/><line class="cls-4" x1="2.58" y1="23.64" x2="3.48" y2="23.2"/><line class="cls-5" x1="0.95" y1="16.69" x2="1.95" y2="16.69"/></g></g></svg>