<svg xmlns="http://www.w3.org/2000/svg" viewBox="0 0 18.98 19.46"><defs><style>.cls-1{fill:gray;}</style></defs><title>soil_moisture</title><g id="Layer_2" data-name="Layer 2"><g id="Layer_2-2" data-name="Layer 2"><path class="cls-1" d="M8.69,11.1h.37V17a2.5,2.5,0,0,0-1.83,1.73.56.56,0,0,0,.38.7.51.51,0,0,0,.17,0,.56.56,0,0,0,.54-.41,1.37,1.37,0,0,1,2.62,0,.56.56,0,0,0,.7.38.56.56,0,0,0,.39-.7A2.52,2.52,0,0,0,10.2,17V11.09h.09A8.7,8.7,0,0,0,19,2.41,8.82,8.82,0,0,0,18.77.49a.59.59,0,0,0-.5-.44c-.31,0-.62,0-.93,0a8.72,8.72,0,0,0-7,3.61.57.57,0,0,0,.93.67,7.54,7.54,0,0,1,6.12-3.14h.4a7.64,7.64,0,0,1,.1,1.26,7.56,7.56,0,0,1-7,7.53l3.59-4.21a.56.56,0,0,0-.06-.8.57.57,0,0,0-.81.06L10.32,8.78V8.69A8.69,8.69,0,0,0,1.64,0C1.33,0,1,0,.71.05a.59.59,0,0,0-.5.44A8.82,8.82,0,0,0,0,2.41,8.7,8.7,0,0,0,8.69,11.1ZM1.24,1.15h.4A7.55,7.55,0,0,1,9.18,8.69c0,.16,0,.33,0,.5L5.42,5a.57.57,0,0,0-.81-.05.58.58,0,0,0,0,.81L8.32,10A7.56,7.56,0,0,1,1.14,2.41a7.64,7.64,0,0,1,.1-1.26Z"/><path class="cls-1" d="M7.73,19.46A.49.49,0,0,1,7.25,19a1.23,1.23,0,0,0-2.46,0,.48.48,0,0,1-.48.48A.49.49,0,0,1,3.83,19a2.19,2.19,0,0,1,4.38,0A.48.48,0,0,1,7.73,19.46Z"/><path class="cls-1" d="M15.41,19.46a.48.48,0,0,1-.48-.48,1.23,1.23,0,0,0-2.46,0,.49.49,0,0,1-.48.48.48.48,0,0,1-.48-.48,2.19,2.19,0,1,1,4.38,0A.49.49,0,0,1,15.41,19.46Z"/></g></g></svg>