<svg xmlns="http://www.w3.org/2000/svg" viewBox="0 0 15.03 26.32"><defs><style>.cls-1{fill:gray;}</style></defs><title>temperature</title><g id="Layer_2" data-name="Layer 2"><g id="Layer_2-2" data-name="Layer 2"><rect class="cls-1" x="10.68" y="3.35" width="4.35" height="1.12"/><rect class="cls-1" x="10.68" y="5.79" width="2.52" height="1.12"/><rect class="cls-1" x="10.68" y="8.24" width="4.35" height="1.12"/><rect class="cls-1" x="10.68" y="10.68" width="2.52" height="1.12"/><rect class="cls-1" x="10.68" y="13.13" width="4.35" height="1.12"/><path class="cls-1" d="M8.55,15.75V2.87a2.88,2.88,0,0,0-5.75,0V15.75a5.69,5.69,0,1,0,5.75,0ZM5.68,25.2a4.55,4.55,0,0,1-2.06-8.62l.31-.15V2.87a1.75,1.75,0,0,1,3.5,0V16.43l.31.15A4.55,4.55,0,0,1,5.68,25.2Z"/><path class="cls-1" d="M6.61,17.15l-.21-.06V10.17H5v6.92l-.2.06a3.62,3.62,0,1,0,1.86,0Zm-1.3,1.94a1.56,1.56,0,0,0-1.2,1.51.73.73,0,1,1-1.45,0A3,3,0,0,1,5,17.68a.72.72,0,1,1,.32,1.41Z"/></g></g></svg>