<svg xmlns="http://www.w3.org/2000/svg" xmlns:xlink="http://www.w3.org/1999/xlink" viewBox="0 0 39.13 52.17"><defs><style>.cls-1{fill:#666;}.cls-2{fill:#999;}.cls-3{opacity:0.1;}.cls-3,.cls-4,.cls-5{isolation:isolate;}.cls-4{opacity:0.53;}.cls-5{fill:#fff;opacity:0.2;}.cls-6{fill:url(#Degradado_sin_nombre_2);}.cls-7{fill:url(#Degradado_sin_nombre_2-2);}</style><linearGradient id="Degradado_sin_nombre_2" x1="-2483.44" y1="-1949.43" x2="-2483.14" y2="-1949.74" gradientTransform="translate(-52957.83 -41559.14) rotate(180) scale(21.33)" gradientUnits="userSpaceOnUse"><stop offset="0" stop-opacity="0.1"/><stop offset="1" stop-opacity="0"/></linearGradient><linearGradient id="Degradado_sin_nombre_2-2" x1="-2483.03" y1="-1949.03" x2="-2482.93" y2="-1949.13" xlink:href="#Degradado_sin_nombre_2"/></defs><title>water_off</title><g id="Layer_2" data-name="Layer 2"><g id="Layer_2-2" data-name="Layer 2"><path class="cls-1" d="M0,25v2.17a1.09,1.09,0,0,0,1.09,1.09H5.43a1.08,1.08,0,0,0,1.09-1.09V25a1.09,1.09,0,0,1,1.09-1.09H13v5.44a1.09,1.09,0,0,0,1.09,1.09h1.09V45.65A4.35,4.35,0,0,0,10.87,50v1.09A1.08,1.08,0,0,0,12,52.17H29.35a1.08,1.08,0,0,0,1.09-1.08V50a4.35,4.35,0,0,0-4.35-4.35V30.44h1.08a1.09,1.09,0,0,0,1.09-1.09V18.93l4.4-4.4c.24,7.53,1.51,19.4,4.39,26.12a1.07,1.07,0,0,0,1.42.57A1.09,1.09,0,0,0,39,39.79c-3.1-7.24-4.26-20.92-4.26-27.83,0-9.46-6.66-10.69-11.18-10.85a2.15,2.15,0,0,0-4,1.06,2.1,2.1,0,0,0,.92,1.73L19.66,13H17.39A4.35,4.35,0,0,0,13,17.39H7.61A7.62,7.62,0,0,0,0,25ZM21.84,13l.81-8.91a2.22,2.22,0,0,0,.92-.85c4,.13,8.83,1.12,9,8.25L28,16.08a4.35,4.35,0,0,0-4.13-3Z"/><path class="cls-2" d="M13,50H28.26a2.17,2.17,0,0,0-2.17-2.17H15.22A2.18,2.18,0,0,0,13,50Z"/><rect class="cls-2" x="17.39" y="30.44" width="6.52" height="15.22"/><path class="cls-2" d="M15.22,28.26H26.09V17.39a2.18,2.18,0,0,0-2.18-2.17H17.39a2.17,2.17,0,0,0-2.17,2.17Z"/><path class="cls-3" d="M15.22,47.83h2.17A2.17,2.17,0,0,0,15.22,50H13A2.18,2.18,0,0,1,15.22,47.83Z"/><rect class="cls-3" x="17.39" y="30.44" width="2.17" height="15.22"/><path class="cls-3" d="M17.39,15.22h2.18a2.18,2.18,0,0,0-2.18,2.17V28.26H15.22V17.39A2.17,2.17,0,0,1,17.39,15.22Z"/><g class="cls-4"><path class="cls-5" d="M26.09,47.83H23.91A2.18,2.18,0,0,1,26.09,50h2.17A2.17,2.17,0,0,0,26.09,47.83Z"/><rect class="cls-5" x="21.74" y="30.44" width="2.17" height="15.22"/><path class="cls-5" d="M23.91,15.22H21.74a2.17,2.17,0,0,1,2.17,2.17V28.26h2.18V17.39A2.18,2.18,0,0,0,23.91,15.22Z"/></g><path class="cls-2" d="M2.17,26.09H4.35V25a3.26,3.26,0,0,1,3.26-3.26H13V19.57H7.61A5.44,5.44,0,0,0,2.17,25Z"/><polygon class="cls-6" points="17.39 30.43 23.91 30.43 17.39 36.96 17.39 30.43"/><polygon class="cls-7" points="10.87 21.74 13.04 19.57 13.04 21.74 10.87 21.74"/></g></g></svg>